<?xml version="1.0" encoding="UTF-8"?>
<svg id="Layer_2" data-name="Layer 2" xmlns="http://www.w3.org/2000/svg" viewBox="0 0 269.07 222.09">
  <defs>
    <style>
      .cls-1 {
        stroke-width: 0px;
      }
    </style>
  </defs>
  <g id="Layer_1-2" data-name="Layer 1">
    <g>
      <path class="cls-1" d="M146.82,123.3c-1.18.47-1.69,1.35-2.47,2.35-2.11,2.72-4.01,5.59-5.78,8.54-3.64,6.05-6.77,12.4-10.34,18.49-1.9,3.24-3.94,6.4-5.87,9.63-.94,1.57-1.81,3.18-2.72,4.77-.78,1.37-1.75,2.61-3.21,3.29-1.67.77-3.53.66-5.31.93-1.41.21-2.8.6-4.1,1.18-1.55.69-2.99,1.6-4.26,2.73-.68.61-1.74,1.5-2.33,2.41-.18.38-.36.75-.54,1.13-.74,1.61-3.14.32-2.7-1.24.12-.45.35-.89.62-1.32,2.36-5.01,5-9.88,7.73-14.7,5.55-9.81,11.49-19.4,17.56-28.89,2.62-4.1,5.26-8.17,7.96-12.22-.58-.18-1.14-.39-1.7-.67-5.34-2.64-8.06-9.04-7.54-14.77.64-7.07,4.98-13.16,9.54-18.32,3.88-4.38,8.27-8.24,12.8-11.94-3.09-1.65-6.61-2.6-10.34-2.6H23.17c-13.74,0-23.03,10.01-23.17,23.69,0,.15,0,.39.01.54l.79,14.97c.11,2.13,1.87,3.8,4.01,3.8h32.36l-5.22-20.12c-1.03-3.62-3.93-6.14-7.74-6.67-3.81-.53-7.29,1.11-9.31,4.39-1.16,1.88-3.62,2.47-5.5,1.31-1.88-1.16-2.47-3.62-1.31-5.5,3.68-5.97,10.27-9.09,17.22-8.12,6.95.96,12.45,5.75,14.36,12.5l27.24,105.02c.69,2.07,2.29,3.56,4.42,4.09,2.11.52,4.21-.03,5.78-1.51l7.82-10.44c3.49-4.65,9.04-7.43,14.86-7.43h83.42l-19.29-64.61c-4.08,1.3-8.15,2.6-12.24,3.86-1.6.49-3.32.86-4.87,1.47Z"/>
      <path class="cls-1" d="M99.79,190.59c-3.31,0-6.47,1.58-8.46,4.23l-7.9,10.54c-.19.25-.39.48-.6.7-2.71,2.67-6.26,4.11-9.95,4.11-1.15,0-2.32-.14-3.47-.43-1.43-.35-2.75-.94-3.97-1.67l.57,2.02c3,10,8.96,12,17.78,12h115.33c11.49,0,20.89-9.4,20.89-20.89,0-4.14-1.67-7.88-4.36-10.61h-115.85Z"/>
      <path class="cls-1" d="M242.9,27.65c5.75-4.38,11.82-8.3,16.94-13.46,3.52-3.55,6.54-7.55,9.02-11.89.96-1.67-1.57-3.27-2.54-1.59-2.72,4.68-8.1,7.71-12.68,10.28-3.57,2-7.25,3.76-10.92,5.55,1.9-2.91,3.99-5.7,4.46-9.28.17-1.28-1.67-2.09-2.53-1.16-2.66,2.88-6.24,4.86-9.67,6.66-4.57,2.4-9.34,4.43-14.14,6.33-7.18,2.83-14.49,5.32-21.86,7.59-6.68,2.05-10.91,7.53-15.43,12.5-5.4,5.93-11.07,11.61-17.01,17-5.87,5.34-12.05,10.29-18.27,15.22-1.37,1.08-2.74,2.18-4.09,3.28,5.82,3.1,10.12,8.69,11.42,15.34,0,.05.02.09.03.14l8.3,27.81c4.13-1.31,8.26-2.61,12.41-3.84.97-.29,1.7-1.7.76-2.49-2.01-1.69-4.25-2.94-6.68-3.72,7.7-4.58,16.44-7.26,25.43-7.67,1.55-.07,2.05-1.83.86-2.77-3.39-2.66-7.35-4.35-11.51-5.32,2.4-2.21,5.31-3.9,8.24-5.29,3.99-1.88,8.16-3.12,12.54-3.62,5.86-.67,11.86-.89,17.44-2.99,5.27-1.98,9.46-5.72,13.43-9.6,4.61-4.5,8.89-9.32,12.87-14.38.94-1.2-.75-2.84-1.99-2.12-6.98,4.13-14.55,6.57-22.36,7.95,1.79-.73,3.54-1.57,5.24-2.54,4.5-2.56,8.22-5.92,11.63-9.79,3.61-4.09,7.18-8.21,10.77-12.33,3.28-3.76,6.68-7.71,7.76-12.72.28-1.29-1.38-2.8-2.46-1.54-5.15,6.04-14.4,6.78-21.61,9.96,1.88-2,3.97-3.81,6.21-5.51Z"/>
    </g>
  </g>
</svg>